<?xml version="1.0" encoding="utf-8"?>
<!-- Generator: Adobe Illustrator 25.1.0, SVG Export Plug-In . SVG Version: 6.00 Build 0)  -->
<!DOCTYPE svg PUBLIC "-//W3C//DTD SVG 1.1//EN" "http://www.w3.org/Graphics/SVG/1.1/DTD/svg11.dtd" [
	<!ENTITY st0 "fill:#FFFFFF;">
]>
<svg version="1.1" id="Layer_1" xmlns="http://www.w3.org/2000/svg" xmlns:xlink="http://www.w3.org/1999/xlink" x="0px" y="0px"
	 viewBox="0 0 270.651 75.497" style="enable-background:new 0 0 270.651 75.497;" xml:space="preserve">
<g>
	<path style="&st0;" d="M136.955,50.803h-1.62c-0.395,0.922-0.998,1.643-1.808,2.163c-0.81,0.521-1.788,0.78-2.934,0.78
		c-1.014,0-1.926-0.237-2.736-0.711c-0.81-0.474-1.446-1.152-1.906-2.035c-0.461-0.882-0.691-1.91-0.691-3.082
		c0-1.172,0.23-2.203,0.691-3.092c0.461-0.889,1.096-1.571,1.906-2.045c0.81-0.474,1.722-0.711,2.736-0.711
		c1.146,0,2.124,0.264,2.934,0.79c0.81,0.527,1.413,1.258,1.808,2.193h1.62c-0.501-1.33-1.301-2.361-2.4-3.092
		c-1.1-0.731-2.42-1.096-3.961-1.096c-1.264,0-2.41,0.3-3.438,0.899c-1.027,0.599-1.837,1.436-2.43,2.509
		c-0.593,1.074-0.889,2.289-0.889,3.645c0,1.357,0.296,2.568,0.889,3.635c0.593,1.067,1.403,1.9,2.43,2.499
		c1.027,0.599,2.173,0.899,3.438,0.899c1.528,0,2.845-0.362,3.951-1.087C135.651,53.141,136.454,52.12,136.955,50.803z"/>
	<polygon style="&st0;" points="147.994,47.227 140.507,47.227 140.507,41.024 139.124,41.024 139.124,54.833 140.507,54.833 
		140.507,48.373 147.994,48.373 147.994,54.833 149.377,54.833 149.377,41.024 147.994,41.024 	"/>
	<path style="&st0;" d="M156.088,41.202l-5.038,13.632h1.462l1.205-3.28H160l1.205,3.28h1.462l-5.018-13.632H156.088z
		 M154.132,50.408l2.726-7.468l2.726,7.468H154.132z"/>
	<polygon style="&st0;" points="170.824,41.024 161.756,41.024 161.756,42.17 165.608,42.17 165.608,54.833 166.991,54.833 
		166.991,42.17 170.824,42.17 	"/>
	<path style="&st0;" d="M171.416,54.833l1.205-3.28h6.282l1.205,3.28h1.462l-5.018-13.632h-1.561l-5.038,13.632H171.416z
		 M175.763,42.94l2.726,7.468h-5.453L175.763,42.94z"/>
	<path style="&st0;" d="M132.124,62.636c-0.784-0.724-1.946-1.087-3.487-1.087h-4.169v13.809h1.383v-5.887h2.786
		c1.554,0,2.719-0.362,3.497-1.087c0.777-0.724,1.166-1.679,1.166-2.865C133.3,64.322,132.908,63.36,132.124,62.636z
		 M128.638,68.286h-2.786v-5.571h2.786c1.133,0,1.956,0.237,2.469,0.711c0.514,0.474,0.77,1.172,0.77,2.094
		C131.878,67.364,130.797,68.286,128.638,68.286z"/>
	<path style="&st0;" d="M144.926,62.29c-1.041-0.599-2.206-0.899-3.497-0.899c-1.278,0-2.437,0.3-3.477,0.899
		c-1.041,0.599-1.861,1.436-2.46,2.509c-0.6,1.074-0.899,2.289-0.899,3.645c0,1.357,0.299,2.572,0.899,3.645
		c0.599,1.074,1.419,1.91,2.46,2.509c1.04,0.599,2.199,0.899,3.477,0.899c1.291,0,2.456-0.299,3.497-0.899
		c1.04-0.599,1.857-1.435,2.45-2.509c0.593-1.073,0.889-2.288,0.889-3.645c0-1.356-0.296-2.571-0.889-3.645
		C146.783,63.726,145.966,62.89,144.926,62.29z M146.131,71.536c-0.474,0.889-1.12,1.571-1.936,2.045
		c-0.817,0.474-1.739,0.711-2.766,0.711s-1.949-0.237-2.766-0.711c-0.817-0.474-1.462-1.156-1.936-2.045
		c-0.474-0.889-0.711-1.919-0.711-3.092c0-1.172,0.237-2.199,0.711-3.082c0.474-0.882,1.119-1.561,1.936-2.035
		c0.816-0.474,1.738-0.711,2.766-0.711s1.949,0.237,2.766,0.711c0.816,0.474,1.462,1.153,1.936,2.035
		c0.474,0.882,0.711,1.91,0.711,3.082C146.843,69.616,146.606,70.647,146.131,71.536z"/>
	<path style="&st0;" d="M158.496,62.379c-1.093-0.553-2.404-0.83-3.931-0.83h-4.089v13.809h4.089c1.528,0,2.838-0.273,3.931-0.82
		c1.093-0.546,1.929-1.337,2.509-2.371c0.579-1.034,0.869-2.262,0.869-3.684c0-1.435-0.29-2.674-0.869-3.714
		C160.426,63.729,159.589,62.932,158.496,62.379z M158.961,72.701c-1.007,1.007-2.473,1.511-4.396,1.511h-2.707V62.695h2.707
		c1.923,0,3.388,0.511,4.396,1.531c1.008,1.021,1.511,2.44,1.511,4.257C160.472,70.288,159.968,71.694,158.961,72.701z"/>
	<path style="&st0;" d="M174.834,72c0,0.645-0.178,1.185-0.533,1.62c-0.356,0.435-0.902,0.652-1.64,0.652
		c-0.777,0-1.347-0.237-1.709-0.711c-0.362-0.474-0.55-1.087-0.563-1.837h-1.403c0,1.159,0.332,2.078,0.998,2.756
		c0.665,0.678,1.557,1.017,2.677,1.017c1.08,0,1.943-0.319,2.588-0.958c0.645-0.639,0.968-1.485,0.968-2.539V61.549h-1.383V72z"/>
	<path style="&st0;" d="M182.616,61.727l-5.038,13.632h1.462l1.205-3.28h6.282l1.205,3.28h1.462l-5.018-13.632H182.616z
		 M180.66,70.933l2.726-7.468l2.726,7.468H180.66z"/>
	<polygon style="&st0;" points="194.509,73.857 189.985,61.549 188.483,61.549 193.718,75.359 195.299,75.359 200.534,61.549 
		199.072,61.549 	"/>
	<path style="&st0;" d="M211.141,62.29c-1.041-0.599-2.206-0.899-3.497-0.899c-1.278,0-2.437,0.3-3.477,0.899
		c-1.041,0.599-1.861,1.436-2.46,2.509c-0.6,1.074-0.899,2.289-0.899,3.645c0,1.357,0.299,2.572,0.899,3.645
		c0.599,1.074,1.419,1.91,2.46,2.509c1.04,0.599,2.199,0.899,3.477,0.899c1.291,0,2.456-0.299,3.497-0.899
		c1.04-0.599,1.857-1.435,2.45-2.509c0.593-1.073,0.889-2.288,0.889-3.645c0-1.356-0.296-2.571-0.889-3.645
		C212.998,63.726,212.181,62.89,211.141,62.29z M212.346,71.536c-0.474,0.889-1.12,1.571-1.936,2.045
		c-0.817,0.474-1.739,0.711-2.766,0.711c-1.027,0-1.949-0.237-2.766-0.711c-0.817-0.474-1.462-1.156-1.936-2.045
		c-0.474-0.889-0.711-1.919-0.711-3.092c0-1.172,0.237-2.199,0.711-3.082c0.474-0.882,1.119-1.561,1.936-2.035
		c0.816-0.474,1.738-0.711,2.766-0.711c1.027,0,1.949,0.237,2.766,0.711c0.816,0.474,1.462,1.153,1.936,2.035
		c0.474,0.882,0.711,1.91,0.711,3.082C213.057,69.616,212.82,70.647,212.346,71.536z"/>
	<path style="&st0;" d="M224.682,68.118c0.573-0.704,0.859-1.557,0.859-2.558c0-1.198-0.399-2.166-1.195-2.904
		c-0.797-0.737-1.966-1.106-3.507-1.106h-4.149v13.809h1.383V69.59h2.549l3.418,5.769h1.659l-3.556-5.868
		C223.262,69.281,224.109,68.823,224.682,68.118z M218.073,68.464v-5.749h2.766c1.133,0,1.962,0.247,2.489,0.741
		c0.527,0.494,0.79,1.195,0.79,2.104c0,0.882-0.273,1.587-0.82,2.114c-0.547,0.527-1.36,0.79-2.44,0.79H218.073z"/>
	<rect x="227.882" y="61.549" style="&st0;" width="1.383" height="13.809"/>
	<polygon style="&st0;" points="241.207,73.146 233.561,61.549 232.179,61.549 232.179,75.359 233.561,75.359 233.561,63.742 
		241.207,75.359 242.59,75.359 242.59,61.549 241.207,61.549 	"/>
	<path style="&st0;" d="M255.135,62.29c-1.041-0.599-2.206-0.899-3.497-0.899c-1.278,0-2.437,0.3-3.477,0.899
		c-1.041,0.599-1.861,1.436-2.46,2.509c-0.6,1.074-0.899,2.289-0.899,3.645c0,1.357,0.299,2.572,0.899,3.645
		c0.599,1.074,1.419,1.91,2.46,2.509c1.04,0.599,2.199,0.899,3.477,0.899c1.291,0,2.456-0.299,3.497-0.899
		c1.04-0.599,1.857-1.435,2.45-2.509c0.593-1.073,0.889-2.288,0.889-3.645c0-1.356-0.296-2.571-0.889-3.645
		C256.992,63.726,256.175,62.89,255.135,62.29z M256.34,71.536c-0.474,0.889-1.12,1.571-1.936,2.045
		c-0.817,0.474-1.739,0.711-2.766,0.711s-1.949-0.237-2.766-0.711c-0.817-0.474-1.462-1.156-1.936-2.045
		c-0.474-0.889-0.711-1.919-0.711-3.092c0-1.172,0.237-2.199,0.711-3.082c0.474-0.882,1.119-1.561,1.936-2.035
		c0.816-0.474,1.738-0.711,2.766-0.711s1.949,0.237,2.766,0.711c0.816,0.474,1.462,1.153,1.936,2.035
		c0.474,0.882,0.711,1.91,0.711,3.082C257.051,69.616,256.814,70.647,256.34,71.536z"/>
	<path style="&st0;" d="M269.268,61.549v8.693c0,1.383-0.319,2.4-0.958,3.052c-0.639,0.652-1.525,0.978-2.657,0.978
		c-1.133,0-2.025-0.329-2.677-0.988c-0.652-0.658-0.978-1.672-0.978-3.042v-8.693h-1.383v8.673c0,1.752,0.464,3.069,1.393,3.951
		c0.929,0.883,2.137,1.324,3.625,1.324c1.488,0,2.697-0.441,3.625-1.324c0.928-0.882,1.393-2.199,1.393-3.951v-8.673H269.268z"/>
	<path style="&st0;" d="M119.81,24.961c-0.003-0.016-0.007-0.032-0.011-0.048c-0.004-0.016-0.009-0.032-0.015-0.047
		c-0.006-0.016-0.013-0.031-0.02-0.046c-0.007-0.015-0.015-0.029-0.023-0.043c-0.009-0.014-0.018-0.027-0.028-0.04
		c-0.01-0.013-0.021-0.026-0.032-0.039c-0.011-0.012-0.023-0.023-0.036-0.034c-0.012-0.011-0.024-0.021-0.038-0.031
		c-0.015-0.011-0.031-0.02-0.047-0.03c-0.009-0.005-0.016-0.011-0.025-0.016L70.962,0.055c-0.145-0.074-0.317-0.074-0.463,0
		L21.925,24.587c-0.009,0.005-0.016,0.011-0.025,0.016c-0.016,0.009-0.032,0.019-0.047,0.03c-0.013,0.01-0.026,0.02-0.038,0.031
		c-0.012,0.011-0.024,0.022-0.035,0.034c-0.012,0.013-0.022,0.026-0.032,0.039c-0.01,0.013-0.019,0.026-0.028,0.04
		c-0.009,0.014-0.016,0.028-0.024,0.043c-0.007,0.015-0.014,0.03-0.02,0.046c-0.006,0.016-0.01,0.031-0.015,0.048
		c-0.004,0.016-0.008,0.031-0.011,0.047c-0.003,0.018-0.004,0.037-0.006,0.055c-0.001,0.01-0.003,0.019-0.003,0.029v4.846
		c0,0.005,0.001,0.011,0.002,0.016c0.001,0.018,0.003,0.037,0.006,0.055c0.002,0.016,0.004,0.032,0.008,0.047
		c0.004,0.015,0.009,0.03,0.014,0.046c0.006,0.018,0.012,0.035,0.02,0.052c0.002,0.005,0.003,0.01,0.006,0.015
		c0.005,0.009,0.011,0.016,0.016,0.025c0.009,0.016,0.019,0.032,0.03,0.047c0.01,0.013,0.02,0.025,0.031,0.038
		c0.011,0.012,0.022,0.024,0.035,0.036c0.012,0.011,0.025,0.022,0.038,0.032c0.013,0.01,0.027,0.02,0.041,0.028
		c0.014,0.008,0.027,0.016,0.042,0.023c0.016,0.008,0.031,0.015,0.048,0.021c0.015,0.005,0.03,0.01,0.045,0.014
		c0.016,0.004,0.033,0.009,0.05,0.011c0.017,0.003,0.035,0.004,0.052,0.005c0.011,0.001,0.02,0.003,0.031,0.003
		c0.006,0,0.011-0.002,0.017-0.002c0.018-0.001,0.035-0.003,0.053-0.005c0.017-0.002,0.033-0.004,0.05-0.008
		c0.015-0.004,0.029-0.009,0.044-0.014c0.018-0.006,0.036-0.012,0.053-0.02c0.005-0.002,0.01-0.003,0.015-0.006l5.445-2.75v3.069
		L0.284,44.426c-0.009,0.005-0.016,0.011-0.025,0.016c-0.016,0.009-0.032,0.019-0.047,0.03c-0.013,0.01-0.025,0.02-0.038,0.031
		c-0.012,0.011-0.024,0.022-0.036,0.034c-0.012,0.012-0.022,0.026-0.032,0.039c-0.01,0.013-0.019,0.026-0.028,0.04
		c-0.009,0.014-0.016,0.028-0.023,0.043c-0.007,0.015-0.014,0.03-0.02,0.046c-0.006,0.016-0.01,0.031-0.015,0.047
		c-0.004,0.016-0.008,0.031-0.011,0.048c-0.003,0.018-0.004,0.037-0.006,0.055C0.002,44.865,0,44.875,0,44.885v4.846
		c0,0.005,0.001,0.01,0.002,0.015c0.001,0.019,0.003,0.037,0.006,0.056c0.002,0.016,0.004,0.032,0.008,0.047
		c0.004,0.015,0.009,0.03,0.014,0.046c0.006,0.018,0.012,0.035,0.02,0.052c0.002,0.005,0.003,0.01,0.005,0.014
		c0.008,0.016,0.018,0.031,0.027,0.046c0.003,0.004,0.005,0.009,0.008,0.014c0.017,0.025,0.036,0.048,0.057,0.069
		c0.005,0.005,0.01,0.009,0.014,0.013c0.017,0.016,0.036,0.032,0.055,0.045c0.006,0.004,0.012,0.009,0.019,0.013
		c0.025,0.016,0.05,0.03,0.077,0.042c0.004,0.002,0.008,0.003,0.012,0.004c0.024,0.01,0.049,0.017,0.074,0.023
		c0.008,0.002,0.016,0.004,0.024,0.005c0.03,0.006,0.061,0.009,0.092,0.009c0.004,0,0.008-0.001,0.012-0.001
		c0.034-0.001,0.066-0.004,0.098-0.011c0.01-0.002,0.019-0.006,0.029-0.009c0.027-0.008,0.053-0.016,0.078-0.028
		c0.004-0.002,0.008-0.002,0.012-0.004L8.21,46.46v11.619H7.137c-0.283,0-0.513,0.23-0.513,0.513s0.23,0.513,0.513,0.513H8.21v2.557
		H7.137c-0.283,0-0.513,0.23-0.513,0.513s0.23,0.513,0.513,0.513H8.21v3.07c0,0,0,0,0,0.001v3.685c0,0,0,0,0,0.001v5.436
		c0,0.283,0.23,0.513,0.513,0.513s0.513-0.23,0.513-0.513v-4.924h18.597v4.924c0,0.283,0.23,0.513,0.513,0.513
		c0.283,0,0.513-0.23,0.513-0.513v-4.924h8.845v4.924c0,0.283,0.23,0.513,0.513,0.513s0.513-0.23,0.513-0.513v-4.924h4.04v4.924
		c0,0.283,0.23,0.513,0.513,0.513c0.283,0,0.513-0.23,0.513-0.513v-4.924h23.888v4.924c0,0.283,0.23,0.513,0.513,0.513
		s0.513-0.23,0.513-0.513v-4.924h4.04v4.924c0,0.283,0.23,0.513,0.513,0.513s0.513-0.23,0.513-0.513v-4.924h23.888v4.924
		c0,0.283,0.23,0.513,0.513,0.513s0.513-0.23,0.513-0.513v-4.924h4.04v4.924c0,0.283,0.23,0.513,0.513,0.513
		c0.283,0,0.513-0.23,0.513-0.513v-5.437v-2.186v-1.499v-1.752v-1.318h1.051c0.283,0,0.513-0.23,0.513-0.513
		s-0.23-0.513-0.513-0.513h-1.051v-2.557h1.051c0.283,0,0.513-0.23,0.513-0.513s-0.23-0.513-0.513-0.513h-1.051V45.453v-2.157
		v-1.528v-3.041h1.051c0.283,0,0.513-0.23,0.513-0.513s-0.23-0.513-0.513-0.513h-1.051v-2.557h1.051c0.283,0,0.513-0.23,0.513-0.513
		s-0.23-0.513-0.513-0.513h-7.175V19.52l14.97,7.56v47.801c0,0.283,0.23,0.513,0.513,0.513s0.513-0.23,0.513-0.513V27.598
		l5.445,2.75c0.007,0.004,0.014,0.006,0.022,0.009c0.006,0.003,0.013,0.006,0.019,0.008c0.027,0.011,0.055,0.02,0.083,0.026
		c0.004,0.001,0.008,0.001,0.013,0.002c0.032,0.006,0.063,0.01,0.095,0.01c0.031,0,0.062-0.004,0.092-0.009
		c0.008-0.001,0.016-0.003,0.024-0.005c0.026-0.006,0.051-0.014,0.075-0.023c0.004-0.001,0.007-0.002,0.011-0.004
		c0.027-0.011,0.052-0.026,0.077-0.042c0.006-0.004,0.012-0.009,0.019-0.013c0.02-0.014,0.038-0.029,0.056-0.046
		c0.004-0.004,0.009-0.008,0.013-0.013c0.02-0.021,0.04-0.044,0.056-0.068c0.003-0.005,0.006-0.011,0.009-0.016
		c0.009-0.014,0.018-0.028,0.026-0.043c0.002-0.005,0.003-0.01,0.006-0.015c0.008-0.017,0.014-0.034,0.02-0.052
		c0.005-0.015,0.01-0.03,0.014-0.046c0.004-0.016,0.006-0.031,0.008-0.047c0.003-0.018,0.005-0.037,0.006-0.055
		c0-0.005,0.002-0.011,0.002-0.016v-4.846c0-0.01-0.002-0.019-0.003-0.029C119.814,24.997,119.813,24.979,119.81,24.961z
		 M70.73,1.088l48.061,24.272v3.696L70.962,4.901c-0.145-0.074-0.317-0.074-0.463,0l-47.83,24.156V25.36L70.73,1.088z
		 M94.965,18.173H46.496L70.73,5.934L94.965,18.173z M43.829,19.52v14.598h-7.175c-0.283,0-0.513,0.23-0.513,0.513
		s0.23,0.513,0.513,0.513h1.051v2.557h-1.051c-0.283,0-0.513,0.23-0.513,0.513s0.23,0.513,0.513,0.513h1.051v3.041v1.528v2.157
		v12.626h-8.845V27.08L43.829,19.52z M65.07,24.819v9.298h-6.434v-9.298H65.07z M90.286,24.819v9.298h-6.434v-9.298H90.286z
		 M102.731,43.296v1.643h-64v-1.643v-1.015h11.932h14.921h10.295h14.921h11.932V43.296z M82.825,41.255h-6.434v-2.528h6.434V41.255z
		 M83.851,38.727h6.434v2.528h-6.434V38.727z M75.365,41.255h-9.269v-2.528h9.269V41.255z M65.07,41.255h-6.434v-2.528h6.434V41.255
		z M57.61,41.255h-6.434v-2.528h6.434V41.255z M50.149,41.255h-5.294v-2.528h5.294V41.255z M43.829,41.255H38.73v-2.528h5.098
		V41.255z M91.312,41.255v-2.528h5.294v2.528H91.312z M91.312,37.701v-2.557h5.294v2.557H91.312z M90.286,37.701h-6.434v-2.557
		h6.434V37.701z M82.825,34.117h-6.434v-9.298h6.434V34.117z M82.825,35.144v2.557h-6.434v-2.557H82.825z M75.365,37.701h-9.269
		v-2.557h9.269V37.701z M65.07,37.701h-6.434v-2.557h6.434V37.701z M57.61,34.117h-6.434v-9.298h6.434V34.117z M57.61,35.144v2.557
		h-6.434v-2.557H57.61z M50.149,37.701h-5.294v-2.557h5.294V37.701z M43.829,37.701H38.73v-2.557h5.098V37.701z M51.257,48.81h6.353
		v9.269h-6.353V48.81z M65.07,58.079h-6.353V48.81h6.353V58.079z M83.851,48.81h6.353v9.269h-6.353V48.81z M97.665,58.079h-6.353
		V48.81h6.353V58.079z M76.391,65.246v-2.557h6.434v2.557H76.391z M66.096,65.246v-2.557h9.269v2.557H66.096z M43.796,65.246v-2.557
		h6.434v2.557H43.796z M38.73,65.246v-2.557h4.04v2.557H38.73z M28.859,65.246v-2.557h8.845v2.557H28.859z M51.257,62.689h6.353
		v2.557h-6.353V62.689z M57.61,61.662h-6.353v-2.557h6.353V61.662z M58.717,62.689h6.353v2.557h-6.353V62.689z M83.851,62.689h6.353
		v2.557h-6.353V62.689z M90.204,61.662h-6.353v-2.557h6.353V61.662z M91.312,62.689h6.353v2.557h-6.353V62.689z M91.312,61.662
		v-2.557h6.353v2.557H91.312z M82.825,58.079h-6.434V48.81h6.434V58.079z M82.825,59.105v2.557h-6.434v-2.557H82.825z
		 M75.365,61.662h-9.269v-2.557h9.269V61.662z M65.07,61.662h-6.353v-2.557h6.353V61.662z M50.231,58.079h-6.434V48.81h6.434V58.079
		z M50.231,59.105v2.557h-6.434v-2.557H50.231z M42.77,61.662h-4.04v-2.557h4.04V61.662z M37.704,61.662h-8.845v-2.557h8.845V61.662
		z M27.833,35.513L1.026,48.901v-3.699l26.807-13.388V35.513z M9.236,45.948l18.597-9.287v21.419H9.236V45.948z M9.236,59.105
		h18.597v2.557H9.236V59.105z M27.833,62.689v2.557H9.236v-2.557H27.833z M9.236,68.931v-2.659h18.597v2.659H9.236z M28.859,68.931
		v-2.659h14.424h7.461h7.379h0.081h7.379h10.295h7.46h7.379h0.081h7.379h4.553v0.986v1.673H28.859z M102.731,64.007v1.239h-4.04
		v-2.557h4.04V64.007z M102.731,61.662h-4.04v-2.557h4.04V61.662z M98.691,58.079v-9.782c0-0.283-0.23-0.513-0.513-0.513h-7.379
		h-0.081h-7.379h-7.46c-0.283,0-0.513,0.23-0.513,0.513v9.782h-9.269v-9.782c0-0.283-0.23-0.513-0.513-0.513h-7.379h-0.081h-7.379
		h-7.461c-0.283,0-0.513,0.23-0.513,0.513v9.782h-4.04V45.966h64v12.113H98.691z M102.731,41.255h-5.098v-2.528h5.098V41.255z
		 M102.731,35.144v2.557h-5.098v-2.557H102.731z M91.312,34.117v-9.811c0-0.283-0.23-0.513-0.513-0.513H75.878
		c-0.283,0-0.513,0.23-0.513,0.513v9.811h-9.269v-9.811c0-0.283-0.23-0.513-0.513-0.513H50.662c-0.283,0-0.513,0.23-0.513,0.513
		v9.811h-5.294V19.199h51.751v14.918H91.312z"/>
</g>
</svg>
